<?xml version="1.0" standalone="no"?>
<!DOCTYPE svg PUBLIC "-//W3C//DTD SVG 20010904//EN"
 "http://www.w3.org/TR/2001/REC-SVG-20010904/DTD/svg10.dtd">
<svg version="1.0" xmlns="http://www.w3.org/2000/svg"
 width="260.000000pt" height="260.000000pt" viewBox="0 0 260.000000 260.000000"
 preserveAspectRatio="xMidYMid meet">
<metadata>
Created by potrace 1.11, written by Peter Selinger 2001-2013
</metadata>
<g transform="translate(0.000000,260.000000) scale(0.100000,-0.100000)"
fill="#000000" stroke="none">
<path d="M82 2569 c-23 -17 -50 -44 -61 -62 -19 -31 -20 -54 -20 -1209 l0
-1177 29 -39 c15 -22 43 -48 62 -60 33 -20 38 -20 1208 -20 1168 0 1175 0
1208 20 19 12 47 38 62 60 l28 39 0 1180 0 1180 -31 41 c-65 83 48 77 -1272
77 l-1173 0 -40 -30z"/>
</g>
</svg>
